<?xml version="1.0" encoding="iso-8859-1"?>
<!-- Uploaded to: SVG Repo, www.svgrepo.com, Generator: SVG Repo Mixer Tools -->
<svg fill="#000000" height="800px" width="800px" version="1.1" id="Layer_1" xmlns="http://www.w3.org/2000/svg" xmlns:xlink="http://www.w3.org/1999/xlink" 
	 viewBox="0 0 512 512" xml:space="preserve">
<g>
	<g>
		<path d="M432.694,144.111c-20.413-20.419-47.551-31.666-76.416-31.666c-28.867,0-56.008,11.247-76.422,31.67l-0.339,0.339
			l-0.339-0.339c-20.411-20.422-47.551-31.67-76.42-31.67c-28.867,0-56.005,11.247-76.415,31.669
			c-20.411,20.42-31.653,47.569-31.653,76.447c0,6.367,0.559,12.645,1.63,18.788c-8.927,3.4-17.122,8.663-24.077,15.623
			c-12.958,12.964-20.094,30.198-20.094,48.53c0,18.334,7.137,35.569,20.092,48.531l81.192,81.301
			c3.704,3.707,8.628,5.749,13.866,5.749c5.237,0,10.161-2.042,13.866-5.75l40.662-40.715l38.426,38.477
			c5.148,5.151,11.991,7.988,19.267,7.988s14.12-2.837,19.269-7.989l92.109-92.232c3.058-3.063,3.055-8.025-0.007-11.082
			c-3.062-3.06-8.024-3.055-11.082,0.007l-92.107,92.23c-2.188,2.189-5.093,3.394-8.181,3.394s-5.993-1.205-8.179-3.392
			l-38.437-38.49l29.453-29.492c12.959-12.965,20.095-30.201,20.095-48.534c0-11.794-3.023-23.403-8.74-33.576
			c-2.121-3.773-6.898-5.114-10.671-2.992c-3.773,2.121-5.113,6.899-2.992,10.672c4.403,7.832,6.73,16.787,6.73,25.896
			c0,14.147-5.508,27.449-15.51,37.457l-81.191,81.298c-0.743,0.744-1.728,1.153-2.776,1.153c-1.032,0-2.045-0.42-2.776-1.153
			l-81.193-81.302c-10-10.005-15.507-23.306-15.507-37.454c0-14.146,5.508-27.446,15.507-37.451
			c9.995-10.003,23.288-15.512,37.429-15.512c14.139,0,27.434,5.509,37.432,15.513c4.886,6.907,13.227,6.808,18.217-0.001
			c9.997-10.003,23.292-15.512,37.431-15.512c9.811,0,19.36,2.679,27.615,7.749c3.683,2.263,8.512,1.112,10.778-2.577
			c2.265-3.687,1.112-8.515-2.577-10.779c-10.724-6.586-23.108-10.068-35.817-10.068c-17.411,0-33.831,6.444-46.539,18.203
			c-12.709-11.759-29.129-18.203-46.54-18.203c-3.103,0-6.169,0.221-9.194,0.625c-0.79-4.891-1.2-9.879-1.2-14.93
			c0-24.693,9.612-47.907,27.065-65.367c17.45-17.46,40.65-27.075,65.329-27.075c24.68,0,47.883,9.615,65.335,27.076
			c6.932,9.372,15.917,9.372,22.848,0c17.453-17.461,40.657-27.076,65.336-27.076c24.677,0,47.879,9.615,65.331,27.075
			c17.453,17.463,27.064,40.678,27.064,65.367c0,24.691-9.611,47.906-27.066,65.37l-16.755,16.778
			c-3.058,3.063-3.055,8.025,0.007,11.082c3.063,3.06,8.025,3.055,11.082-0.007l16.753-16.776
			c20.411-20.423,31.652-47.573,31.652-76.448C464.346,191.683,453.105,164.535,432.694,144.111z"/>
	</g>
</g>
<g>
	<g>
		<path d="M479.09,157.215c-6.214-11.614-14.147-22.286-23.574-31.718c-8.062-8.068-17.072-15.068-26.781-20.811
			c-3.723-2.202-8.529-0.972-10.734,2.755c-2.204,3.725-0.971,8.532,2.755,10.734c8.576,5.073,16.542,11.264,23.674,18.401
			c8.34,8.343,15.351,17.776,20.841,28.034c1.413,2.638,4.118,4.141,6.916,4.141c1.247,0,2.513-0.299,3.691-0.93
			C479.694,165.78,481.133,161.031,479.09,157.215z"/>
	</g>
</g>
<g>
	<g>
		<path d="M511.307,154.531c-7.981-17.718-19.072-33.751-32.966-47.65c-14.073-14.08-30.323-25.277-48.3-33.284
			c-3.952-1.761-8.586,0.017-10.346,3.972c-1.761,3.953,0.018,8.586,3.972,10.346c16.216,7.221,30.881,17.329,43.59,30.046
			c12.55,12.553,22.562,27.023,29.762,43.006c1.306,2.902,4.161,4.62,7.149,4.62c1.076,0,2.169-0.223,3.214-0.694
			C511.325,163.118,513.084,158.477,511.307,154.531z"/>
	</g>
</g>
<g>
	<g>
		<path d="M60.504,236.353c-3.062-3.06-8.024-3.059-11.082,0.003c-8.679,8.683-15.492,18.765-20.25,29.965
			c-1.692,3.984,0.165,8.585,4.149,10.278c1,0.424,2.039,0.626,3.062,0.626c3.049,0,5.949-1.791,7.216-4.774
			c3.969-9.342,9.657-17.759,16.909-25.014C63.566,244.375,63.565,239.414,60.504,236.353z"/>
	</g>
</g>
<g>
	<g>
		<path d="M50.799,207.838c-2.628-3.436-7.546-4.094-10.986-1.463c-4.294,3.284-8.425,6.904-12.273,10.756
			c-11.807,11.81-20.885,25.582-26.984,40.937c-1.597,4.023,0.368,8.579,4.391,10.176c0.949,0.376,1.928,0.555,2.891,0.555
			c3.117,0,6.065-1.872,7.286-4.945c5.306-13.358,13.213-25.35,23.503-35.642c3.361-3.366,6.964-6.523,10.71-9.387
			C52.774,216.195,53.429,211.277,50.799,207.838z"/>
	</g>
</g>
<g>
	<g>
		<path d="M429.436,186.157c-11.795-7.599-17.707-13.514-25.306-25.306c-1.443-2.239-3.925-3.592-6.588-3.592
			c-2.663,0-5.145,1.353-6.588,3.592c-7.599,11.793-13.511,17.706-25.306,25.306c-2.239,1.443-3.592,3.925-3.592,6.588
			c0,2.663,1.353,5.145,3.592,6.588c11.796,7.601,17.708,13.514,25.306,25.306c1.443,2.239,3.925,3.592,6.588,3.592
			c2.663,0,5.145-1.353,6.588-3.592c7.599-11.793,13.511-17.706,25.306-25.306c2.239-1.443,3.592-3.925,3.592-6.588
			C433.029,190.081,431.675,187.6,429.436,186.157z M397.542,206.803c-4.245-5.416-8.641-9.813-14.057-14.057
			c5.416-4.245,9.812-8.642,14.057-14.057c4.245,5.416,8.642,9.813,14.057,14.057C406.183,196.991,401.786,201.388,397.542,206.803z
			"/>
	</g>
</g>
<g>
	<g>
		<path d="M401.558,253.596l-18.809-18.808c-3.059-3.059-8.022-3.059-11.082,0l-18.808,18.808c-1.47,1.469-2.296,3.462-2.296,5.541
			c0,2.078,0.826,4.072,2.296,5.542l18.81,18.808c1.53,1.53,3.536,2.295,5.541,2.295c2.005,0,4.011-0.765,5.542-2.296l18.807-18.808
			C404.619,261.617,404.619,256.655,401.558,253.596z M377.211,266.863l-7.728-7.726l7.725-7.726l7.727,7.726L377.211,266.863z"/>
	</g>
</g>
</svg>